<?xml version="1.0" encoding="UTF-8"?><svg id="_レイヤー_2" xmlns="http://www.w3.org/2000/svg" viewBox="0 0 823.72 419.94"><defs><style>.cls-1{fill:#306f3a;}.cls-2{fill:#e3b034;}</style></defs><g id="_レイヤー_1-2"><path class="cls-1" d="M571.17,292.73c0,10.33.45,29.19.9,43.11.67,20.43,8.31,35.25-5.39,41.98-11.68,5.61-20.88,3.37-22.9-8.08-25.6.22-77.23.67-95.87,1.35-.67,4.49-2.69,8.08-7.86,10.55-14.59,7.18-25.37,1.8-23.35-18.41.45-5.61,4.27-49.84.9-89.36-1.12-12.12-3.14-21.55-4.49-30.31-2.25-13.02,10.1-14.59,12.8-14.37,13.47,1.12,19.08,7.41,21.1,14.59,12.35,0,76.11-.67,91.6-1.8,4.49-.45,9.65-2.25,13.7-5.16,2.92-2.25,7.18-8.31,15.49-6.96,5.61.9,11.67,7.18,12.8,13.25.9,4.94-1.8,8.76-7.18,10.33-2.02,12.8-2.02,23.13-2.25,39.29ZM447.69,361.43c4.71,0,19.08,0,35.92-.22-1.12-3.14-1.57-7.18-1.12-12.12.45-3.82,2.47-16.39,2.25-36.6-6.51,0-11,.22-12.35.45-6.74.9-5.84,2.02-11,2.02-4.94-.22-8.53-3.14-9.43-7.18-1.35-4.49,2.47-8.31,7.41-7.63,6.29.9,8.53,2.92,17.74,2.92h7.18c-.22-4.94-.45-10.1-.9-15.72-1.12-10.78-2.69-19.31-4.04-27.17-.45-3.37,0-5.61.9-7.63-12.8.22-24.7.45-32.33.67-.22,5.39-1.35,9.88-1.8,11.9-1.35,6.29-1.57,21.78-1.35,32.78,0,6.06.45,26.72.67,41.54,0,8.31,1.57,15.72,2.25,22ZM504.72,252.32c9.65,8.08,4.94,23.35,4.27,27.17-.9,4.49-1.12,14.37-1.35,23.13,13.02,0,27.39-.45,37.27-.9v-6.51c-.45-22.9-2.02-34.58-3.37-43.11h-3.59c-5.84,0-18.64,0-33.23.22ZM508.98,360.99c12.8-.22,25.15-.45,34.35-.67,0-.22,0-.45.22-.9.45-4.49,1.57-21.55,1.35-48.05-9.43,0-23.8.22-37.05.45,0,3.14.45,5.39.45,15.94.22,14.59,4.94,26.04.67,33.23Z"/><path class="cls-1" d="M808.71,246.71c-4.71-.67-15.49-1.57-19.31-1.8h-8.53c-16.39-.22-100.81.67-105.97,1.35-6.74,1.12-5.84,2.25-11,2.02-4.94,0-8.31-3.14-9.43-7.18-1.35-4.49,2.47-8.31,7.41-7.63,6.29.9,9.65,2.92,17.74,2.92,1.35,0,23.57,0,47.15-.22-.9-8.76-2.02-13.25-2.69-18.19-1.35-7.86,4.71-11.67,10.1-11.67,7.63,0,16.17,3.59,19.08,12.12,1.8,4.71,1.35,8.98.45,14.14,0,.9-.22,2.02-.45,3.14,12.57-.22,23.35-.67,28.29-.9,4.49-.45,9.88-2.25,13.7-5.39,2.92-2.02,7.18-8.08,15.72-6.74,5.39.9,11.45,7.18,12.57,13.02,1.35,6.96-4.49,12.12-14.82,11ZM818.14,305.31c.67,4.49-1.35,8.31-5.84,9.88-.9,12.12-.45,31.88,0,37.94.9,8.98,1.35,13.47-1.12,20.21-2.47,6.29-7.18,9.43-12.12,9.88-10.55,1.35-14.82-6.96-19.08-11.23-4.94-4.71-6.06-8.08-3.14-11.9,4.27-6.06,12.8.45,12.8.45.22-5.61.9-32.11-2.25-45.8-2.25-.22-4.27-.45-5.39-.45-4.94.22-67.8.67-90.03,1.35-.22,2.02-.67,4.04-1.12,5.61-2.92,12.57-.22,26.94,1.12,35.25.9,6.96,2.02,15.27-2.92,21.33-5.39,6.06-15.04,6.51-19.53,2.47-5.61-5.39-1.8-24.7-2.02-39.07-.22-9.43-1.35-22.23-3.59-32.11-3.82-16.17,13.02-16.84,20.21-12.12,3.59,2.47,5.84,5.61,6.96,8.76,17.51,0,82.17-.45,86.89-1.35,4.49-.67,7.86-2.47,11.9-5.39,2.92-2.25,7.18-8.31,15.49-6.74,5.61.9,11.68,7.18,12.8,13.02ZM779.08,269.38c0,4.04.45,8.31,1.35,12.8.9,5.39,1.57,9.88-2.92,13.7-5.84,5.16-12.8,6.29-17.74,3.14-2.02-1.12-3.14-3.14-3.82-5.39-12.35.22-28.74.67-34.35,1.12-.67,1.57-1.57,2.92-3.14,4.49-5.84,4.94-12.8,5.84-17.51,2.92-3.82-2.25-4.49-6.96-4.04-13.02.9-10.1.9-18.63-2.02-31.21-1.8-8.31,6.96-14.82,19.76-7.41,4.49,2.47,6.29,5.84,6.74,8.98,5.84,0,18.19-.45,22.68-1.12,4.49-.9,8.08-2.47,11.9-5.61,3.14-2.25,7.41-8.53,15.94-6.96,5.61.9,11.68,7.41,12.8,13.25.9,4.71-1.35,8.53-5.61,10.33ZM771.89,341.45c-.22,4.27-.22,8.98.67,12.8.9,4.71,1.35,8.98-2.69,12.57-5.39,4.71-11.9,5.61-16.39,2.92-2.02-1.12-3.14-3.14-3.59-5.39-8.76.22-18.41.67-22.23.9-.45,1.8-1.35,3.14-2.92,4.49-5.39,4.94-11.9,5.61-16.17,2.92-3.59-2.02-4.27-6.51-3.82-11.9.9-9.88,1.12-17.29-1.8-29.41-1.8-7.63,6.29-13.7,18.19-6.96,4.27,2.47,5.84,5.39,6.29,8.53,3.82,0,8.76-.45,11.68-.9,4.04-.67,8.53-2.25,12.12-5.16,2.69-2.02,6.51-7.41,14.14-6.06,4.94.67,10.33,6.51,11.23,11.9.9,3.82-1.12,7.18-4.71,8.76ZM755.95,283.75c.45-6.96.22-10.33-.67-14.82-3.14-.22-5.84-.45-7.18-.45-4.71,0-19.31.67-27.39,1.12-.45,4.27-.67,9.21.22,14.59h1.35c2.02.22,21.1,0,33.68-.45ZM749.89,354.47c.45-6.29,0-8.76-.9-13.25-3.14-.22-5.61-.45-6.96-.22-3.37,0-9.88.22-15.27.67-.45,3.82-.45,8.53,0,13.25h1.8c1.57,0,12.12,0,21.33-.45Z"/><path class="cls-1" d="M468.96,135.25c-.15,0-.3,0-.45-.05.55.53,1,1.2,1.1,1.82.1.58,0,1.06-.3,1.44.95.43,1.79,1.44,1.99,2.4.25,1.39-.95,2.45-3.09,2.21-.4-.05-.95-.1-1.49-.14.2,1.06-.2,2.21-1.39,3.02-.05,0-.1.05-.15.1,1.24.24,2.44.43,3.48.48,1.29.1,1.74,1.01,1.74,1.73.05,1.3-1.24,2.74-3.38,3.12-1.04.14-2.09-.05-3.04-.67-.6-.38-1.29-.77-1.79-.91-2.14-.62-5.97-2.78-6.67-4.7-.55-1.49.8-2.3,2.14-1.63.9.48,1.94.91,3.09,1.34.5-.62,1-1.34,1.44-2.06-2.64-.05-8.66.05-12.14.14.45.86,0,1.78-.05,2.35-.1.77-.1,1.15.05,1.78,1.04-.1,2.09-.29,3.14-.58,1.29-.34,2.29.67,1.49,1.87-1.05,1.58-3.88,2.69-5.92,2.83-.45,0-1.19.19-1.79.43-.95.34-1.94.29-2.84-.1-1.79-.72-2.59-2.26-2.29-3.41.2-.67.8-1.34,1.94-1.15.55.1,1.1.14,1.69.19.05-.38.1-.72.1-1.06.05-1.1-.35-1.78-.65-2.64-.9-.14-1.49-.67-1.69-1.44-.25-.91.5-1.68,1.54-1.54,1.29.19,1.99.58,3.68.58.5.05,10.6-.05,14.09-.34.95-.05,2.04-.43,2.84-1.06.15-.1.35-.29.55-.43-1.1-.1-2.74-.24-3.38-.29h-1.79c-3.43-.05-11.7.14-12.74.29-1.44.19-1.19.43-2.29.38-1.05,0-1.74-.62-1.99-1.44-.25-.91.55-1.68,1.59-1.54,1.29.19,1.94.58,3.63.58.55.05,8.41-.05,11.9-.34.95-.05,2.04-.43,2.89-1.06.25-.19.6-.53,1.05-.86h-1.64c-2.99-.05-15.83.1-19.81.24-.05.29-.15.53-.25.82-.25.77-.2,2.74-.7,4.8-.9,3.98-2.29,5.81-3.24,6.67-1.49,1.39-3.43.53-2.89-1.54,1-3.65,1.69-8.88,1.29-12.77-.05-.58.15-1.2.6-1.68-.4-1.49.25-3.94.2-6.43-.05-2.11-.3-2.93-.85-5.09-.85-3.6,2.99-3.74,4.63-2.69.9.62,1.39,1.34,1.59,2.11h3.58c-.1-.67-.3-1.25-.55-2.35-.75-3.07,2.54-3.17,3.93-2.26,1.99,1.3,1.54,3.26,1.29,4.51v.05c1.34,0,2.69-.05,3.93-.05-.1-.62-.3-1.2-.55-2.26-.75-3.07,2.54-3.17,3.93-2.26,1.94,1.25,1.54,3.17,1.34,4.42.35-.05.55-.05.65-.05,1-.19,1.79-.53,2.64-1.15.65-.48,1.59-1.78,3.48-1.49,1.24.19,2.54,1.54,2.79,2.78.2.91-.2,1.63-1.04,2.06-.15,1.87.2,3.41.4,4.8.2,1.39.45,3.02-.35,4.27.05.05.15.05.2.05,1.15.19,2.39,1.44,2.64,2.64.25,1.39-.95,2.4-3.09,2.16ZM463.29,132.85c.85-.05,1.84-.38,2.64-.86-.6-.1-1.1-.29-1.44-.62-.2-.14-.3-.29-.4-.48-5.72.05-17.47.14-20.41.24-.15.29-.3.53-.55.77-.05.14-.15.24-.3.34.2.29.35.62.45,1.01,1.59,0,16.62-.1,20.01-.38ZM463.84,128.82c0-.86.15-1.87.2-2.93-.95,0-2.04,0-3.14.05-.05.62-.25,1.25-.7,1.73-1.05,1.2-2.94,1.25-3.83.48-.45-.38-.55-1.2-.55-2.16-1.29.05-2.54.05-3.58.05-.05.62-.25,1.15-.7,1.63-1,1.2-2.94,1.25-3.78.48-.35-.34-.5-.91-.55-1.63-.25.05-.5.1-.95.05-1.04,0-1.84-.62-2.04-1.54-.3-.96.5-1.73,1.64-1.58.6.05,1,.19,1.44.29.05-.77.15-1.58.15-2.3-1.44,0-2.74.05-3.58.05-.05.43-.15.82-.2,1.15-.3,1.78-.15,2.74.1,4.56.1.58.2,1.2.2,1.78,2.59,0,14.53-.05,19.86-.14ZM456.07,121.28c-1.34.05-2.79.05-4.18.05,0,.77.1,1.54.2,2.35.05.1.05.19.05.29h3.78c.05-.91.15-1.82.15-2.69ZM460.5,121.23c0,.82.1,1.58.25,2.45v.24c1.24-.05,2.39-.05,3.33-.1,0-1.06-.15-1.87-.35-2.5-.65-.1-1.24-.1-1.54-.1h-1.69Z"/><path class="cls-1" d="M537.2,137.75c.3,1.44-1,2.54-3.29,2.3-.9-.1-2.74-.24-3.78-.29.05.96.2,1.63.35,2.21.4,1.58.25,3.89-2.99,4.18-1.04.1-1.89-.38-2.19-1.44,0-.14-.05-.29-.05-.43-1.39,0-3.09,0-4.88.05.15,1.3.3,2.74.1,3.94-.3,1.97-1.34,3.31-3.58,3.26-2.29,0-3.29-2.11-3.83-3.02-.4-.67-1.64-1.92-.9-2.93,1-1.25,2.49-.05,3.19.38.05-.43.05-.96.1-1.58-3.14.1-5.67.14-6.17.19-1.49.24-1.29.48-2.44.43-1.09,0-1.89-.67-2.09-1.54-.3-.96.55-1.78,1.64-1.63,1.34.19,1.89.62,3.93.62.2,0,2.39,0,5.13-.05.05-.82.05-1.68.05-2.64-5.18.05-10.1.14-10.65.24-1.54.19-1.29.43-2.49.43-1.1-.05-1.84-.67-2.09-1.54-.25-1.01.55-1.78,1.64-1.63,1.39.19,2.14.58,3.93.62.3,0,4.78,0,9.66-.1v-2.21c-2.89.05-5.48.14-6.12.24-1.49.19-1.29.43-2.44.43-1.1-.05-1.89-.67-2.09-1.54-.3-1.01.55-1.78,1.64-1.63,1.39.19,2.14.58,3.93.62.3,0,2.49,0,5.03-.1,0-1.15,0-2.35-.05-3.46-3.09.05-5.77.1-6.92.14-.1.29-.25.58-.55.82-1.24,1.06-2.74,1.25-3.73.62-.85-.48-1-1.49-.9-2.69.2-2.02.2-3.46-.4-5.91-.45-1.68,1.44-3.02,4.18-1.54.85.48,1.24,1.01,1.44,1.58,1.24,0,3.83,0,6.62-.05,0-.34-.05-.62-.05-.86-.05-.53-.15-1.1-.25-1.78-5.57.1-10.85.19-11.4.24-1.54.24-1.34.48-2.49.43-1.1,0-1.84-.67-2.09-1.54-.25-.96.55-1.78,1.64-1.63,1.39.19,2.14.62,3.93.62.3,0,4.93,0,10.05-.05-.1-.58-.15-1.1-.25-1.49-.45-2.54.75-3.26,2.49-3.26,1.44.05,3.43.72,3.68,2.98.05.53.05,1.1,0,1.68,3.38-.05,6.22-.14,7.47-.19,1-.1,2.14-.48,3.04-1.15.65-.43,1.59-1.73,3.48-1.44,1.19.19,2.54,1.54,2.79,2.78.3,1.49-1,2.59-3.29,2.35-.55-.1-1.39-.14-2.24-.24.95.53,1.74,1.54,1.89,2.45.2.96-.25,1.73-1.19,2.06-.05.72,0,1.49.1,2.06.2,1.06.35,2.45-.55,3.22-.6.48-1.19.77-1.74.91.75.53,1.39,1.44,1.54,2.26.2,1.01-.35,1.82-1.44,2.16-.05.38-.1.77-.1,1.1.25-.1.5-.24.75-.43.65-.48,1.59-1.78,3.48-1.49,1.19.19,2.54,1.58,2.79,2.83ZM515.35,128.19c0-1.15-.05-2.21-.1-3.12-2.69,0-5.28.1-6.77.14-.1.72-.15,1.78.05,2.69.05.1.05.19.05.34h.45c.25,0,2.94-.05,6.32-.05ZM527.29,127.95c.1-1.1.1-1.87-.05-2.88-.45-.05-.8-.05-1.04-.05-.45-.05-1.1-.05-1.84-.05h-4.53v3.17c2.74-.05,5.48-.1,7.47-.19ZM519.88,133.47c.95-.05,1.84-.1,2.54-.14,1-.05,2.19-.48,3.04-1.1.5-.38,1.19-1.2,2.34-1.44-.2-.19-.35-.48-.45-.77-1.94,0-4.68.05-7.52.05,0,1.15,0,2.3.05,3.41ZM519.93,123.06c1.89-.05,3.58-.14,4.53-.19,1-.1,2.14-.48,2.99-1.1.45-.29,1-.96,1.84-1.3h-1.54c-1.19-.05-4.08,0-7.52,0,0,.19-.05.34-.05.43-.1.58-.2,1.3-.25,2.16ZM520.03,137.75c1.94-.05,3.73-.05,5.23-.1-.1-.77-.15-1.49-.25-2.06-.35,0-.65-.05-.85-.05-.45,0-1.09,0-1.89-.05h-2.34c.05.77.05,1.54.1,2.26ZM520.22,142.36c1.79-.05,3.58-.1,4.98-.14.1-1.2.1-2.35.1-2.5v-.05c-1.44,0-3.24.05-5.23.05.05,1.01.1,1.92.15,2.64Z"/><path class="cls-1" d="M576.42,146.72c.5,2.45-.85,3.7-2.94,3.7-1.59.05-2.34-1.01-2.14-2.98.05-.29.25-1.92.3-2.88.05-1.15-.25-3.98-.75-5.71-.15-.53-.1-1.1.15-1.54-.4.05-.85.14-1.29.34-1.94.82-4.63-.62-5.08-2.59-.3-1.54.9-2.35,1.89-2.21.4.05.8.1,1.24.14.1-.19.2-.38.4-.58.95-.96,1.84-2.21,2.69-3.6-.9.48-1.99.34-2.69-.1-.6-.38-1.34-1.58-1.54-1.87-.6-.91-1.39-1.44-1.89-1.97-1.19-1.25-.35-2.5,1-2.45.3,0,.7.05,1.14.14.85-1.39,1.44-2.88,1.99-4.66.4-1.34,1.89-2.5,3.58-1.54,1.64.96,2.29,3.31.5,5.09-.45.48-.9,1.2-1.54,1.82-.35.29-.65.58-1,.82.95.67,1.64,1.54,1.59,2.59.65-1.2,1.19-2.4,1.69-3.55.5-1.1,2.29-2.02,3.78-.38,1.19,1.25,1.15,3.12-.55,4.75-.5.48-1.19,1.87-2.49,3.36-.75.91-1.54,1.58-2.29,2.11,2.24-.1,4.38-.34,5.62-.53.15-.05.3-.05.4-.05-.1-.86-.3-1.68-.55-2.21-.6-1.34.7-2.59,1.99-1.68,1,.67,2.64,2.26,3.38,4.08.55,1.44.55,2.98-.3,3.84-1.34,1.34-3.23.77-3.83-.34-.15-.24-.25-.62-.35-.96-.85.53-2.44,1.01-3.88,1.49-.05,0-.15,0-.2.05.2.1.45.19.6.34,1.74,1.15,1.49,3.12,1.24,4.22-.05.19-.35,2.26-.35,2.83.05.91.25,1.92.45,2.64ZM570,143.36c-.2.62-.25,1.44-.5,2.3-.35,1.01-.8,1.92-1.79,2.78-1.14.96-2.64.58-2.54-1.15.05-1.68-.15-3.36-.55-5.23-.3-1.39.5-3.12,2.44-2.98,1.94.1,3.63,1.92,2.94,4.27ZM582.09,145.38c-1.79,1.1-3.29,0-3.73-1.06-.25-.67-.15-2.02-.15-2.35.05-1.06-.2-2.11-.3-2.78-.25-1.58,1.19-2.02,1.99-1.34,1.19.91,2.74,2.64,3.14,4.51.3,1.3,0,2.5-.95,3.02ZM601.65,149.46c-1.05-.14-3.93-.43-4.73-.38-1.29,0-9.86.14-11,.29-1.54.24-1.44.48-2.59.43-1.1,0-1.89-.67-2.09-1.54-.3-.96.55-1.78,1.64-1.63,1,.14,1.44.34,2.29.48-.2-.58-.25-1.34-.15-2.26.1-1.01.8-11.91.15-18.96-.2-2.16-.55-3.84-.8-5.38-.4-2.3,1.84-2.64,2.39-2.59,2.64.24,3.63,1.49,3.93,2.83,1.24,0,2.99-.1,3.78-.24,1-.14,1.74-.48,2.64-1.15.65-.48,1.59-1.73,3.43-1.44,1.24.19,2.59,1.54,2.84,2.79.2,1.01-.35,1.82-1.39,2.16-.25,2.26-.3,5.76-.3,7.78,0,1.06.1,7.34.15,9.98,0,1.39.25,2.64.4,3.7,1.19.24,2.44,1.58,2.69,2.78.3,1.49-1,2.54-3.29,2.35ZM596.03,146.96c.2-.05.4-.1.6-.14-.15-.53-.15-1.2-.1-1.97.05-.48.2-2.93.3-6.1-.45.05-.85.1-1.24.14-1.49.19-1.39.43-2.59.43-1.1-.05-1.84-.67-2.09-1.54-.25-1.01.55-1.78,1.69-1.63,1.34.14,1.69.53,3.48.53h.8v-5.28c-.45.05-.9.1-1.29.14-1.49.19-1.39.43-2.59.43-1.1-.05-1.84-.67-2.09-1.54-.25-1.01.55-1.78,1.69-1.63,1.34.14,1.69.53,3.48.53h.75c-.05-.72-.1-1.39-.15-2.06-.1-1.82-.3-3.41-.5-4.61-.35,0-.65-.05-.8,0-.95,0-3.09.1-4.63.19-.1.67-.25,1.2-.3,1.44-.2,1.15-.25,3.46-.25,5.42,0,1.06.1,8.26.15,10.9.05,2.88,1,5.09.15,6.53,2.34-.05,4.93-.1,5.52-.19Z"/><path class="cls-1" d="M669.1,127.14c-.2,1.68-2.14,3.31-4.98,3.41-1.34.05-2.74-.34-3.83-1.3-.7-.67-1.59-1.2-2.19-1.49-3.68-2.02-7.02-4.56-9.26-6.87-.05.1-.1.14-.2.19-.7.43-1.15.91-2.04,1.63-.95.82-3.14,2.78-4.83,3.89-3.73,2.5-8.01,4.27-10.1,4.46-.6.05-1.74.14-2.24-.86-.4-.96,0-1.82.85-2.3,2.19-1.34,5.77-3.74,8.26-6.1,2.84-2.69,5.43-6,6.42-7.63,1.49-2.45,5.23-1.3,5.72,1.87.05.24.05.43.05.62,1.99,1.54,5.23,3.7,8.16,5.18,2.74,1.34,5.77,2.26,8.21,2.74,1.69.34,2.09,1.58,1.99,2.54ZM660.49,138.47c.2.96-.3,1.78-1.29,2.16-.15,2.02.25,3.31.4,4.56.25,1.39.45,2.88-.7,3.89-1.59,1.39-3.43,1.63-4.73.86-.55-.38-.85-.91-1-1.63-2.99.05-6.82.1-8.76.19-.15.48-.35.91-.8,1.25-1.54,1.39-3.43,1.63-4.68.86-1.04-.62-1.19-1.92-1.09-3.5.1-1.39.2-1.97.25-3.17.05-2.06-.4-3.79-.8-5.47-.5-2.21,1.84-3.98,5.28-2.02,1.09.62,1.59,1.39,1.79,2.21,1.19,0,4.43,0,7.32-.38.95-.14,1.69-.48,2.54-1.1.65-.48,1.59-1.78,3.48-1.49,1.24.19,2.54,1.54,2.79,2.78ZM637.9,131.79c-.25-1.01.55-1.78,1.64-1.63,1.39.19,2.14.58,3.93.62.6,0,4.38.05,7.67-.38,1-.1,1.74-.48,2.59-1.1.65-.48,1.59-1.78,3.48-1.49,1.19.19,2.54,1.58,2.79,2.83.3,1.44-1,2.54-3.29,2.3-1.05-.1-3.43-.29-4.28-.34-.45,0-1.09,0-1.89-.05-3.63-.05-6.97.19-8.06.34-1.54.19-1.34.43-2.49.43-1.1-.05-1.84-.67-2.09-1.54ZM644.37,140.63c-.1.43-.2.86-.3,1.2-.25,1.06.05,2.59.25,4.03.05.19.1.34.1.53,1.64,0,5.77-.05,8.71-.1.1-1.3.2-1.39.25-2.59,0-1.49-.2-2.26-.5-3.22-.45-.05-1.1-.05-1.79-.05-2.69-.05-5.13.05-6.72.19Z"/><path class="cls-1" d="M697.31,128.77c-1.24-.72-1-2.3,1.05-2.59.8-.14,2.84-.38,5.18.62,3.78,1.73,2.84,5.47-.5,5.67-1.59.1-2.49-1.01-3.09-1.73-.8-.96-2.09-1.63-2.64-1.97ZM707.82,134.91c-1.29,2.4-3.33,4.13-3.43,6.96-.05,2.35,1.94,3.17.85,6.24-1.04,2.98-5.82,3.55-6.32.24-.3-1.97.5-2.59.5-4.22s-.5-3.41-1.89-4.61c-.9-.72.1-2.16,1.24-1.49.5.29.45.34.95.53.8.29,1.64-.1,2.34-.82,1.54-1.54,2.64-2.78,3.73-4.13.9-1.1,2.74-.1,2.04,1.3ZM699.25,117.49c.85-.1,2.84-.38,5.18.67,3.78,1.68,2.84,5.42-.5,5.67-1.59.1-2.49-1.06-3.09-1.73-.8-.96-2.09-1.68-2.64-2.02-1.24-.67-1-2.26,1.05-2.59ZM727.03,134.72c-.7,0-3.98.05-6.97.14,1.14.96,1.74,2.64.8,4.42-.3.67-.65,1.49-1,2.4-.3.77-.8,1.63-1.34,2.5.65,0,1.29-.05,1.94-.1,2.19-.14,4.28-.48,6.17-.91-.3-.91-.6-1.73-.8-2.21-.6-1.44.9-3.22,3.04-1.68,1.49,1.1,3.68,2.88,4.83,6.14.4,1.25.35,2.83-.4,3.6-2.09,2.06-5.38,1.2-5.67-1.97-.05-.24-.1-.53-.15-.86-3.09,1.2-7.57,2.26-9.06,2.3-.55.05-1.29.19-1.99.48-1.04.38-2.14.29-3.09-.1-1.99-.86-2.84-2.54-2.49-3.79.2-.72.85-1.49,2.14-1.25.25.05.55.1.85.1.7-2.3,1.49-5.33,1.49-7.06-.05-.67.2-1.39.6-1.92-.75.05-1.29.05-1.49.1-1.54.19-1.44.43-2.59.38-1.1,0-1.84-.62-2.09-1.54-.25-.96.55-1.73,1.64-1.58,1.39.14,1.74.53,3.53.53h3.73c-.8-1.58.05-4.9,0-7.97v-.05c-1.84.05-3.38.1-3.78.14-1.54.19-1.44.43-2.64.43-1.05-.05-1.84-.67-2.09-1.54-.25-.96.55-1.78,1.69-1.63,1.34.19,1.74.53,3.53.58.2,0,1.54,0,3.19-.05-.15-1.68-.4-3.5-.8-5.14-.95-3.84,3.19-3.55,4.93-2.45,2.54,1.63,2.09,4.22,1.69,5.76-.15.62-.25,1.15-.3,1.73.65-.05,1.09-.1,1.24-.14.95-.19,1.59-.53,2.44-1.15.65-.48,1.59-1.78,3.48-1.44,1.19.19,2.54,1.54,2.79,2.78.3,1.49-1,2.54-3.29,2.3-1.04-.1-2.99-.38-4.53-.38-.3,0-1.1.05-2.14.05.1,1.06.3,2.02.45,3.02.25,1.63.55,3.65-.7,5.04,1.15-.05,2.04-.1,2.24-.14,1-.24,1.59-.53,2.49-1.15.6-.48,1.54-1.78,3.43-1.49,1.24.19,2.54,1.54,2.79,2.78.3,1.49-.95,2.59-3.29,2.35-1.04-.1-2.99-.38-4.48-.38Z"/><path class="cls-1" d="M781.72,124.5c-1.89,2.98-3.24,8.45-5.13,12.38-2.84,5.9-7.67,11.57-11.8,13.11-2.29.86-3.68-1.06-1.94-3.02,3.29-3.74,6.72-8.98,9.11-15.12,1.15-2.88,2.99-8.98,3.63-12.96.35-2.16,2.04-2.78,3.24-2.54,1.64.34,3.68,1.63,4.08,3.7.35,1.63-.6,3.55-1.19,4.46ZM798.64,146.44c-.45,1.63-2.54,2.98-5.28,2.74-1.34-.14-2.64-.72-3.53-1.78-.6-.72-1.39-1.39-1.94-1.73-2.44-1.49-7.12-6.19-7.32-8.83-.15-2.02,1.79-2.54,3.43-.96,1.34,1.3,3.53,3.02,5.43,4.18,2.54,1.58,5.28,2.93,7.62,3.65,1.54.53,1.84,1.82,1.59,2.74Z"/><path class="cls-1" d="M192.21,419.11c-42.89-2.76-80.3-32.55-105.07-65.56-23.63-31.49-35.19-67.73-62.68-97.73-7.68-8.38-17.24-14.65-24.46-23.09l3.54-3.54c19.09,3.74,34.17,16.57,47.08,30.33-4.83-21.27-6.87-43.14-7.3-64.96-16.16-4.61-29-21.25-26.16-38.49,2.31-13.99,15.94.88,19.59,6.44,2.81,4.3,4.13,9.5,7.33,13.53l2.18-29.11c-14.45-7.76-26.42-28.78-15.5-43.58l3.7.04c8.34,4.59,13.12,14.33,14.55,23.54.21.22,1.04-.44,1.23-.81.59-1.16,6.87-23.74,6.93-25.04.18-3.74-4.11-9.18-3.16-17.84,2.35-21.54,31.14-42.9,25.06-5.22-2.27,14.05-9.51,15.34-14.12,24.35-2.84,5.56-3.84,15.06-5.3,21.28,6.03-6.92,11.94-15.44,20.98-18.7,4.68-1.69,11.07-4.31,12.31,2.58-1.26,10.96-9.08,21.26-18.83,26.1-3.67,1.82-16.84,4.39-17.59,6.14l-3.42,29.71c6.31-10.31,14.92-22.73,28.59-22.51,4.8,1.94,1.72,11.48.44,15.14-4.12,11.75-16.6,21.47-29,22.97l1.18,34.33c4.33-10.54,14.49-30.81,28.24-26.38,4.21,19.35-7.71,36.46-26.25,41.63,5.89,32.32,15.42,64.81,35.67,91.15,45.47-52.17,113.69-85.26,183.28-88.41,36.8-1.66,46.63,4.12,47.13,42.95.95,73.73-48.55,136.77-124.44,139.58h-.82c-.81,0-1.65.05-2.46,0-.46-1.05-1.54-.76-2.46-.82ZM285.51,257.89c-68.08,1.08-138.02,32.09-179.97,86.2l26.52,26.67c37.51-52.82,89.12-97.32,153.45-112.88ZM302.7,275.07c-64.15,11.81-117.45,55.6-152.24,109.25,11.57,7.12,23.92,12.94,37.53,15.07,22.1-40.7,52.1-75.24,92.06-99.08,4.71-2.81,18.81-8.32,21.36-10.62.82-.74,1.28-1.68,1.28-2.74v-11.87ZM298.61,314.36c-36.46,17.85-65.99,48.79-85.11,84.28,41.94-8.49,74.67-43.48,85.11-84.28Z"/><path class="cls-1" d="M204.02,146.94c39.44-38.19,75.44,16.34,92.55,49.54,2.58,5.01,6.97,11.48,5.72,17.21-2.15,3.72-20.87-1.76-25.49-2.34-36.89-4.6-74.1-5.37-111.17-2.56-6.91.52-41.65,6.53-44.97,4.02-1.93-1.46-1.33-3.1-1.1-5.06,1.06-9.08,24.67-38.01,32.63-43.51,13.79-9.53,21.61-7.82,34.53,1.88,1.66-.34,14.48-16.45,17.31-19.19Z"/><path class="cls-2" d="M169.1,46.13c49.43-6.6,53.64,71.77,3.87,71.87-42.96.09-46.89-66.13-3.87-71.87Z"/><path class="cls-2" d="M162.15,34.23c-1.9-1.54-4.97-27.11-4.35-30.52S159.94.2,163.16,0c.98-.05,1.72.31,2.51.84,2.79,1.85,10.75,44.99-3.53,33.39Z"/><path class="cls-2" d="M213.27,13.34c1.24-.35,2.48-.37,3.72,0l2.29,1.82c3.47,4.79-13.85,25.64-16.4,26.32-1.15.31-2.16.64-3.27-.06-10.05-2.67,11.99-27.61,13.66-28.08Z"/><path class="cls-2" d="M118.35,24.76c2.72-.44,20.5,14.47,21.52,16.6,1.7,3.55.55,8.37-3.79,8.62-3.48.2-32.33-22.84-17.74-25.22Z"/><path class="cls-2" d="M220.3,69.37c-11.05-8.21,18.44-14.27,22.63-12.38,11.9,9.86-19.63,14.61-22.63,12.38Z"/></g></svg>